<svg xmlns="http://www.w3.org/2000/svg" viewBox="0 0 1920 1080"><path fill="#fafaf9" stroke="#fafaf9" d="M917.5 1.149C636.483 23.371 420 257.847 420 540c0 299.149 240.851 540 540 540 351.836 0 608.887-329.394 524.023-671.5-55.85-225.145-251.16-389.581-483.973-407.467-15.748-1.21-66.688-1.138-82.55.116" fill-rule="evenodd"/><path fill="#b5d2e7" stroke="#b5d2e7" d="M926.5.621c-75.663 5.808-139.658 22.87-204 54.388-157.605 77.202-266.318 223.42-295.507 397.455-9.26 55.21-9.26 119.862 0 175.072 38.567 229.946 215.525 406.904 445.471 445.471 41.356 6.937 102.505 8.954 141.536 4.669 258.413-28.368 455.308-225.263 483.676-483.676 4.285-39.031 2.268-100.18-4.669-141.536-40.555-241.8-233.004-422.99-478.007-450.041C1001.246.904 939.25-.358 926.5.621m-9.908 270.469c-4.9.491-9.071 1.055-9.269 1.253-.198.198.53 3.22 1.618 6.716 1.088 3.495 1.779 6.555 1.535 6.799-.244.243-3.713-.524-7.71-1.705-11.121-3.288-19.305-3.899-20.528-1.534-3.205 6.2-3.992 25.639-1.321 32.663.692 1.819.419 5.176-.966 11.877-2.03 9.823-3.944 30.418-3.949 42.48l-.002 7.138-3.446.647c-4.534.85-10.824 7.957-12.671 14.316-2.588 8.907-1.881 30.702 1.207 37.26 3.077 6.533 7.116 11.538 10.883 13.486 2.127 1.1 3.123 2.795 4.476 7.618 4.147 14.781 14.951 31.596 27.983 43.553l7.457 6.843-1.035 8.5c-2.246 18.43-9.454 23.264-27.432 18.396-22.151-5.998-47.591-2.342-73.671 10.585-5.361 2.658-9.99 4.442-10.285 3.965-.295-.478-4.548-3.35-9.451-6.383-26.652-16.486-56.418-15.879-88.515 1.806-14.546 8.014-13.555 7.614-15.633 6.316-2.616-1.634-2.378-5.269 1.221-18.685 1.697-6.325 4.178-16.45 5.513-22.5 10.13-45.898 25.574-83.856 39.548-97.199 4.544-4.338 8.887-5.938 18.351-6.76 4.4-.382 14.461-2.008 22.358-3.614 7.897-1.606 19.822-3.352 26.5-3.879 17.112-1.351 22.772-3.532 26.157-10.077 3.366-6.508 1.003-11.075-7.042-13.611-6.85-2.159-6.843-2.233 1.059-11.883 13.313-16.258 13.036-19.871-2.112-27.597-9.131-4.657-25.273-9.751-37.831-11.938-15.55-2.708-26.702 2.456-36.838 17.058-1.719 2.475-7.387 9.9-12.596 16.5-8.724 11.052-12.841 15.972-20.083 24l-13.08 14.5c-5.705 6.325-18.987 20.275-29.516 31-25.79 26.272-37.061 41.549-57.175 77.5-10.777 19.263-28.68 57.41-30.505 65-5.476 22.777 8.279 46.229 36.204 61.729a365.045 365.045 0 0 1 8.127 4.66c7.278 4.341 25.612 11.051 41.095 15.041 22.817 5.88 34.602 7.641 70.934 10.6l7.656.623 7.094 10.772c3.902 5.925 7.094 11.043 7.094 11.374 0 .517-19.823 30.214-44.733 67.015L706.034 754h234.255l-.85 21.25c-1.253 31.337-1.365 30.628 5.311 33.418 5.204 2.175 9.425-.162 14.015-7.761 2.054-3.4 5.648-9.049 7.985-12.554 2.337-3.505 4.25-6.598 4.25-6.874 0-.544 8.14-13.781 13.668-22.225l3.434-5.246 126.402-.254 126.403-.254-6.204-9.144c-3.411-5.03-14.753-21.806-25.203-37.28a82417.436 82417.436 0 0 0-19.958-29.548c-.702-1.034.743-3.898 5.41-10.72 8.461-12.368 8.884-12.808 12.323-12.808 4.733 0 33.518-4.773 42.249-7.006 46.633-11.925 77.973-31.251 88.702-54.698 1.877-4.102 2.2-6.604 2.234-17.296l.04-12.5-6.692-15c-25.153-56.376-47.483-91.764-77.297-122.5-37.625-38.789-61.006-65.18-77.522-87.5-12.342-16.68-20.031-21.171-34.489-20.147-20.73 1.469-51.094 13.424-54.406 21.42-1.494 3.607-.052 6.273 10.39 19.207 3.584 4.439 6.516 8.248 6.516 8.465 0 .217-2.362 1.163-5.25 2.103-7.003 2.279-8.758 3.963-8.715 8.357.1 10.116 8.17 14.378 30.465 16.089 6.6.507 16.275 1.799 21.5 2.873 5.225 1.073 14.9 2.721 21.5 3.661 16.474 2.347 20.373 4.688 29.176 17.511 5.992 8.73 15.543 29.951 20.459 45.461 3.828 12.076 18.191 68.404 19.442 76.245 1.15 7.211-3.559 9.665-9.292 4.841-5.616-4.725-24.595-13.526-34.694-16.088-23.362-5.926-44.066-2.351-64.283 11.101l-8.213 5.465-10.298-4.93c-27.594-13.209-51.506-16.311-74.289-9.637-16.939 4.963-22.726.658-26.201-19.485l-1.764-10.222 2.979-2.484c16.125-13.449 29.816-33.938 33.265-49.786.487-2.238 2.114-4.346 5.131-6.649 18.476-14.099 16.309-59.676-3.021-63.542-2.652-.53-2.888-.893-2.42-3.708 1.336-8.035 3.523-32.318 3.523-39.12 0-25.215-11.006-41.377-26.585-39.041-4.026.604-5.287.208-13.675-4.298-29.756-15.986-60.615-22.934-89.148-20.072m8.908 306.816c-8.736 2.211-23.5 14.477-23.5 19.524 0 .314 27.435.57 60.966.57h60.967l-2.074-3.514c-2.745-4.652-11.341-11.904-17.451-14.722-4.78-2.205-5.83-2.269-40.408-2.44-19.525-.097-36.85.165-38.5.582M804.497 612.25c-.242.688-1.784 8-3.427 16.25-1.642 8.25-3.932 19.275-5.089 24.5-1.156 5.225-3.179 14.9-4.496 21.5-1.316 6.6-3.128 15.15-4.026 19-2.019 8.66-9.459 44.605-9.459 45.7 0 .44 4.463.8 9.917.8h9.916l2.05-8.75c1.128-4.812 3.658-16.625 5.624-26.25 1.965-9.625 3.81-18.288 4.1-19.25.45-1.492 1.81-1.75 9.235-1.75h8.707l1.726-8.382c2.567-12.472 3.067-11.618-6.794-11.618-9.698 0-8.924 1.395-6.102-11 .814-3.575 2.229-9.975 3.145-14.222l1.664-7.721 13.115-.279 13.115-.278 1.745-8.5c.96-4.675 1.766-9.062 1.791-9.75.036-.965-5.203-1.25-22.985-1.25-17.524 0-23.137.299-23.472 1.25m51.055 6.789c-2.397 11.098-2.396 11.099 8.182 10.75l8.766-.289 1.652-6.5c.909-3.575 1.696-7.737 1.75-9.25L876 611h-18.711l-1.737 8.039m70.028 5.711c-.597 12.408-1.195 21.972-4.548 72.75-.545 8.25-1.287 21.204-1.648 28.786l-.658 13.787 10.252-.287 10.251-.286 7.483-20.5a11380.58 11380.58 0 0 0 11.271-31c6.848-18.984 20.096-55.325 23.589-64.706 4.87-13.079 5.208-12.419-6.192-12.08l-9.62.286-12.406 35.5-12.407 35.5.549-10c.546-9.965 1.708-24.561 3.543-44.5.532-5.775.965-11.962.964-13.75L946 611h-19.759l-.661 13.75m66.955-12.5c-1.405 4.363-3.486 16.02-3.001 16.806.9 1.455 17.026 1.185 18.234-.306.771-.952 4.232-15.145 4.232-17.357 0-1.13-19.096-.29-19.465.857m30.602 4.5c-.593 3.163-1.785 8.9-2.65 12.75-.865 3.85-2.453 11.275-3.53 16.5-2.481 12.038-10.098 47.797-14.485 68-4.698 21.63-5.289 24.85-4.676 25.463.295.295 4.554.537 9.464.537 8.086 0 8.977-.188 9.45-2 .658-2.516.758-2.507 4.607.422 6.666 5.072 13.073 4.209 19.214-2.588 4.841-5.359 5.816-7.932 9.446-24.937 1.691-7.918 3.528-16.345 4.083-18.726 2.619-11.238 6.94-34.359 6.94-37.133 0-11.579-8.858-16.112-19.75-10.107-2.888 1.592-5.25 2.805-5.25 2.697 0-.109 1.575-7.785 3.5-17.057 1.925-9.272 3.5-17.469 3.5-18.215 0-1.045-2.154-1.356-9.393-1.356h-9.393l-1.077 5.75m-132.46 4c-.243.413-.747 2.325-1.12 4.25-.374 1.925-1.372 6.763-2.218 10.75l-1.54 7.25h-4.38c-3.962 0-4.44.263-5.003 2.75a522.793 522.793 0 0 1-1.97 8.175c-1.637 6.59-1.388 7.075 3.632 7.075 3.591 0 3.913.21 3.452 2.25-11.36 50.315-13.178 62.871-10.151 70.114 2.808 6.721 10.913 9.899 20.461 8.024l4.518-.888 1.257-6c.691-3.3 1.56-7.462 1.932-9.25l.676-3.25h-4.593c-4.088 0-4.662-.28-5.232-2.55-.57-2.27 4.365-30.031 8.08-45.45.728-3.025 1.61-7.166 1.96-9.203l.635-3.703 6.13-.297 6.129-.297 1.356-6.5c2.33-11.163 2.589-10.46-3.989-10.801-4.904-.255-5.727-.565-5.319-2 .265-.935 1.226-5.299 2.136-9.699.911-4.4 1.872-8.788 2.137-9.75.434-1.578-.454-1.75-9.027-1.75-5.229 0-9.707.337-9.949.75m196.823 23.155c-4.386 2.041-10.992 8.577-14.32 14.17-3.586 6.027-14.179 53.952-14.18 64.155-.001 12.909 6.09 19.24 18.5 19.23 14.81-.012 25.554-10.423 29.54-28.624 1.817-8.301 1.374-8.839-7.259-8.821-9.174.02-9.15 0-11.146 8.922-1.882 8.409-3.724 11.063-7.683 11.063-4.674 0-4.969-3.011-1.739-17.75l2.247-10.25h14.211c7.816 0 14.44-.371 14.72-.824 1.213-1.963 5.92-26.296 6.321-32.676.55-8.757-2.177-14.756-8.287-18.234-5.098-2.901-15.095-3.073-20.925-.361m71.5-.311c-1.925.834-4.775 2.729-6.333 4.211l-2.834 2.695.695-3.75.695-3.75h-18.872l-4.249 19.75c-2.338 10.862-5.77 26.725-7.627 35.25-3.605 16.544-8.475 40.314-8.475 41.365 0 .349 4.239.635 9.42.635h9.42l1.609-7.078c.886-3.892 3.183-14.805 5.105-24.25 9.053-44.484 9.61-45.672 21.435-45.672h5.92l.644-3.75c.355-2.062 1.275-6.29 2.046-9.394.77-3.105 1.401-6.142 1.401-6.75 0-1.582-5.885-1.294-10 .488m-308.533.656c-.485 1.291-7.699 35.124-14.507 68.036-2.137 10.332-4.35 20.457-4.917 22.5-.568 2.043-1.034 4.068-1.037 4.5-.003.433 4.362.658 9.701.5l9.707-.286 1.245-6c.685-3.3 2.194-10.275 3.354-15.5 1.159-5.225 3.16-14.675 4.446-21 1.285-6.325 4.183-19.93 6.439-30.232 5.646-25.784 6.064-23.768-4.929-23.768-6.308 0-9.173.377-9.502 1.25m133.166 9.964c-1.396 6.207-2.814 12.861-3.153 14.786-.338 1.925-2.56 12.5-4.937 23.5-6.866 31.768-9.583 44.906-9.562 46.25.014.909 2.561 1.25 9.346 1.25h9.327l2.238-10.25c1.231-5.638 4.219-19.7 6.64-31.25a12429.08 12429.08 0 0 1 7.496-35.5c4.586-21.483 5.172-19.447-5.693-19.786l-9.165-.287-2.537 11.287m107.968 6.328c-2.496 2.496-4.238 6.393-5.479 12.257-1.57 7.417-1.699 7.201 4.278 7.201h5.399l1.717-7.717c1.927-8.659 1.277-12.591-2.161-13.086-1.158-.167-2.847.438-3.754 1.345m-57.375 1.718c-1.539 1.638-2.799 5.422-4.254 12.783-1.137 5.752-3.647 17.586-5.577 26.3-1.931 8.714-3.372 17.035-3.202 18.492.605 5.215 6.907 3.179 8.158-2.636 10.781-50.09 11.727-56.349 8.605-56.963-.849-.167-2.528.744-3.73 2.024" fill-rule="evenodd"/><path fill="#bfd9eb" stroke="#bfd9eb" d="M926 1.115C690.21 16.736 492.609 181.751 436.001 410.311c-71.601 289.101 105.116 582.063 394.31 653.688 289.101 71.601 582.063-105.116 653.688-394.31 67.941-274.322-87.315-554.425-356.31-642.834C1064.197 5.988 991.84-3.246 926 1.115m-12.815 269.841c-6.847 1.084-6.76.935-4.747 8.107 2.095 7.468 2.189 7.368-4.498 4.804-3.094-1.187-8.945-2.312-13.568-2.61l-8.129-.524-1.371 3.884c-1.248 3.532-1.516 16.437-.699 33.633.111 2.337-.613 8.975-1.61 14.75-.996 5.775-2.093 17.925-2.437 27l-.626 16.5-2.862.327c-1.808.207-4.479 1.991-7.249 4.84-6.159 6.337-7.811 12.364-7.771 28.333.04 15.504 2.622 22.436 11.244 30.187 4.268 3.836 5.635 5.924 7.534 11.5 5.853 17.186 14.313 29.735 29.398 43.606l5.212 4.793-.573 7.207c-1.517 19.092-9.898 25.067-27.437 19.561-19.381-6.086-48.108-1.884-73.289 10.72l-8.792 4.401-5.189-3.57c-30.447-20.943-68.816-19.801-102.444 3.049-9.1 6.184-10.314 2.761-5.733-16.166 1.969-8.134 5.319-21.988 7.447-30.788 10.999-45.508 24.142-76.155 38.227-89.138 5.26-4.849 5.43-4.909 17.777-6.353 5.225-.61 14.616-2.216 20.868-3.568 6.252-1.351 17.502-2.899 25-3.439 18.792-1.353 25.365-3.684 28.726-10.183 3.617-6.996 1.607-11.944-5.834-14.358-7.436-2.413-7.433-2.389-1.132-10.044C826.066 348.38 830 342.141 830 339.381c0-7.133-17.039-16.312-40.742-21.946-21.994-5.229-33.989-1.89-44.462 12.376-19.127 26.055-41.47 51.757-72.315 83.189-22.052 22.471-32.094 34.231-41.846 49a772.933 772.933 0 0 1-5.001 7.5c-12.349 18.032-40.048 72.925-46.12 91.4-2.835 8.627-1.749 21.012 2.607 29.728 16.978 33.977 75.663 58.898 148.2 62.937l12.821.714 6.749 10.11c3.712 5.561 7.046 10.617 7.411 11.236.364.619-.779 3.094-2.541 5.5-1.761 2.406-6.815 9.813-11.232 16.46-4.416 6.647-14.49 21.699-22.387 33.449-7.896 11.749-14.582 21.949-14.857 22.664-.408 1.065 20.884 1.302 116.751 1.302h117.251l-.626 8.75c-.345 4.813-.925 15.792-1.29 24.399l-.664 15.649 2.56 2.56c7.766 7.766 13.48 4.613 24.208-13.358 10.421-17.459 21.133-34.823 22.49-36.458 1.141-1.375 15.006-1.542 127.657-1.542 85.761 0 126.378-.33 126.378-1.027 0-.904-18.782-29.171-43.603-65.621l-8.273-12.149 7.188-10.552c7.046-10.345 7.277-10.565 11.688-11.158 59.103-7.948 92.347-20.453 116.824-43.945 18.663-17.912 21.697-34.257 11.032-59.431-23.389-55.207-49.823-96.898-82.819-130.617-34.18-34.928-55.765-59.436-76.011-86.305-12.447-16.518-21.615-19.835-43.483-15.733-16.019 3.005-33.796 10.061-40.418 16.044-6.638 5.997-6.039 7.839 8.053 24.796 6.006 7.226 6.057 6.862-1.361 9.772-9.044 3.549-10.258 8.938-3.696 16.411 3.972 4.524 12.656 7.142 26.379 7.952 5.5.325 13.375 1.214 17.5 1.976 13.078 2.416 31.323 5.49 36.455 6.142 19.456 2.471 39.876 50.13 58.954 137.592.383 1.754-.031 3.4-1.225 4.875-2.019 2.493-4.798 1.648-11.792-3.582-1.709-1.279-6.948-4.124-11.643-6.323-31.347-14.685-58.547-13.199-84.604 4.621l-7.355 5.03-8.145-4.325c-24.082-12.79-53.292-17.097-74.145-10.932-18.223 5.387-23.608 1.938-27.359-17.522l-2.019-10.473 8.733-8.149c12.626-11.782 22.058-26.877 26.494-42.4 1.304-4.564 2.33-6.062 5.866-8.56 16.294-11.514 17.283-52.816 1.495-62.442-1.766-1.077-3.997-1.959-4.96-1.961-2.166-.005-2.18-1.17-.196-16.004 5.939-44.398-3.348-68.316-25.507-65.692-4.032.478-5.357.166-8.57-2.017-10.736-7.296-35.696-17.015-52.472-20.433-10.668-2.173-36.256-3.259-44.82-1.902M926.23 578.55c-10.58 2.849-23.23 13.141-23.23 18.9 0 .303 27 .55 60 .55s60-.277 60-.616c0-1.671-7.408-10.395-10.855-12.784-9.94-6.888-14.351-7.562-49.145-7.513-23.939.034-32.765.385-36.77 1.463m-128.071 66.7c-3.999 18.837-9.066 42.8-11.26 53.25-2.194 10.45-5.094 23.846-6.444 29.769-1.35 5.923-2.455 10.985-2.455 11.25 0 .264 4.426.481 9.835.481h9.836l2.793-13.75c1.536-7.562 3.812-18.25 5.059-23.75 1.246-5.5 2.578-11.913 2.959-14.25l.694-4.25h17.625l1.052-4.75c.578-2.612 1.332-6.325 1.674-8.25.342-1.925.844-4.288 1.115-5.25.442-1.569-.394-1.75-8.075-1.75-10.161 0-9.633 1.817-5.23-18l3.221-14.5 13.071-.278 13.07-.278 1.74-8.722c.956-4.797 1.91-9.284 2.119-9.972.296-.974-4.636-1.25-22.374-1.25H805.43l-7.271 34.25m59.398-33c-.208.688-.901 4.108-1.538 7.601-.638 3.493-1.408 6.999-1.711 7.789-.461 1.2.999 1.39 8.799 1.149l9.351-.289 1.139-5.141c.627-2.828 1.444-6.766 1.817-8.75l.677-3.609h-9.077c-6.392 0-9.189.37-9.457 1.25m69.068 3c-.274 2.337-1.007 13.7-1.629 25.25a4971.817 4971.817 0 0 1-2.514 42.5c-.76 11.825-1.647 27.35-1.97 34.5-.324 7.15-.839 15.138-1.144 17.75l-.556 4.75h19.259l1.819-4.25c1-2.337 3.65-9.425 5.889-15.75 2.24-6.325 10.666-29.5 18.727-51.5C981.355 622.513 985 612.388 985 611.58c0-.319-4.166-.58-9.257-.58h-9.256l-11.838 34.25c-6.511 18.837-12.434 35.6-13.162 37.25-1.85 4.19-1.856 1.98-.053-18.063.789-8.765 1.933-22.687 2.544-30.937s1.273-16.687 1.471-18.75l.361-3.75H927.123l-.498 4.25m65.029 3.278C989.193 629.73 988.692 629 998.841 629h8.841l1.12-5.25c.617-2.888 1.413-6.937 1.771-9l.65-3.75h-17.915l-1.654 7.528m32.963-5.778c-.285.962-2.118 9.4-4.074 18.75a4327.018 4327.018 0 0 1-6.503 30.5c-6.968 31.906-16.04 75.535-16.04 77.138 0 .474 4.001.862 8.892.862 8.644 0 8.909-.069 9.517-2.494l.626-2.493 4.232 3.084c6.213 4.528 12.176 3.848 18.212-2.077 6.211-6.095 6.602-7.449 17.498-60.52 1.694-8.25 3.297-15.999 3.563-17.221.776-3.566-1.204-10.403-3.719-12.839-4.069-3.941-7.688-3.955-15.163-.058-6.288 3.277-6.632 3.349-6.169 1.294 3.287-14.594 7.511-34.188 7.511-34.843 0-1.843-17.829-.954-18.383.917m-135.008 14.373c-.885 3.917-1.612 7.63-1.615 8.25-.003.62-.474 2.815-1.047 4.877-1.001 3.604-1.211 3.75-5.423 3.75h-4.382l-1.155 5.75c-.635 3.163-1.39 6.763-1.679 8-.479 2.053-.166 2.25 3.584 2.25 4.926 0 4.913-.083 2.038 13.047-9.228 42.131-10.286 48.804-8.896 56.136 1.521 8.029 5.063 11.101 13.41 11.633 10.43.664 11.083.282 12.919-7.557 2.605-11.13 2.65-10.803-1.442-10.45-5.147.444-6.313-1.427-5.659-9.075.415-4.844 6.245-34.111 10.257-51.484.466-2.018 1.123-2.25 6.378-2.25h5.86l1.621-6.456c2.426-9.657 2.472-9.544-3.878-9.544-6.416 0-6.213.696-3.5-12 2.785-13.03 3.376-12-6.891-12h-8.892l-1.608 7.123m201.345 16.19c-8.727 2.446-16.822 11.317-20.247 22.187-3.82 12.124-11.126 49.189-11.141 56.523-.026 12.416 4.713 18.082 15.711 18.782 15.55.99 26.039-7.99 30.722-26.301 1.101-4.303 2.001-8.202 2.001-8.664 0-.462-3.795-.84-8.433-.84-9.432 0-8.591-.73-10.55 9.16-2.141 10.809-10.143 14.83-12.26 6.161-.589-2.409 3.586-23.064 4.934-24.412.467-.467 7.112-.975 14.766-1.129l13.917-.28 1.767-8c5.147-23.31 5.396-31.62 1.119-37.358-4.318-5.794-13.694-8.244-22.306-5.829m71.548-.177c-4.109.962-11.502 5.461-11.502 7 0 .475-.419.864-.93.864-.574 0-.574-1.243 0-3.243.511-1.784.93-3.359.93-3.5 0-.142-4.216-.257-9.369-.257h-9.369l-.583 3.25c-.32 1.788-2.163 10.675-4.094 19.75-1.932 9.075-6.012 28.425-9.067 43-3.055 14.575-5.807 27.305-6.116 28.289-.516 1.643.193 1.765 8.747 1.5l9.308-.289 2.166-10c1.191-5.5 4.476-21.025 7.3-34.5 6.225-29.703 8.234-33 20.106-33h4.561l1.709-8.25c1.87-9.022 2.097-11.803.951-11.65-.412.056-2.549.522-4.748 1.036m-311.909 2.614c-.298.962-2.138 9.4-4.088 18.75-7.261 34.801-9.634 46.03-12.533 59.29-1.634 7.48-2.972 14.187-2.972 14.905 0 .977 2.264 1.305 9 1.305 4.95 0 9-.205 9-.455 0-.251 2.036-10.038 4.525-21.75a18703.24 18703.24 0 0 0 9.03-42.795c2.477-11.825 4.941-23.387 5.475-25.693.533-2.306.97-4.443.97-4.75 0-1.657-17.883-.498-18.407 1.193m134.397 4c-.634 3.163-3.168 15.2-5.63 26.75-2.463 11.55-4.878 23.025-5.368 25.5-1.407 7.106-6.81 32.427-7.544 35.352l-.665 2.648h18.14l.989-3.75c.544-2.062 1.931-8.25 3.082-13.75 1.15-5.5 3.661-17.425 5.578-26.5 6.986-33.069 10.428-49.877 10.428-50.927 0-.684-3.237-1.073-8.929-1.073h-8.929l-1.152 5.75m105.837 10.951c-2.367 2.712-3.44 5.247-4.782 11.299-.671 3.025-1.436 6.288-1.7 7.25-.418 1.526.291 1.75 5.549 1.75h6.029l1.184-4.25c.652-2.337 1.232-7.175 1.289-10.75l.104-6.5-3.051-.299c-1.978-.193-3.604.335-4.622 1.5m-57.079 1.049c-1.823 2.042-2.68 5.157-6.264 22.75-1.456 7.15-3.765 17.932-5.131 23.96-2.655 11.718-2.293 15.54 1.471 15.54 4.418 0 5.546-3.598 14.166-45.21 1.79-8.641 2.988-16.404 2.664-17.25-.798-2.079-4.977-1.952-6.906.21" fill-rule="evenodd"/><path fill="#0c64b3" stroke="#0c64b3" d="M932.958 1.075C612.071 17.043 375.933 309.481 427.536 627c47.728 293.678 325.286 493.274 619.464 445.464 305.882-49.711 507.009-347.42 439.48-650.518-56.977-255.735-291.321-433.918-553.522-420.871M910.5 270.892c-4.466.679-4.417.534-2.699 8.004 1.411 6.136 1.212 6.717-1.753 5.13-5.04-2.698-23.322-5.009-24.503-3.098-2.447 3.958-3.779 21.205-2.272 29.411 1.391 7.577 1.406 9.343.13 15.361-2.217 10.454-4.403 30.776-4.403 40.935 0 8.948-.055 9.162-2.525 9.782-4.011 1.007-10.029 7.141-12.598 12.841-2.133 4.731-2.364 6.655-2.37 19.742-.008 17.574 2.382 24.41 11.11 31.779 3.969 3.351 5.332 5.395 7.281 10.922 5.838 16.551 14.188 29.49 26.282 40.725l8.084 7.51-.718 8.226c-1.544 17.698-9.171 23.784-23.739 18.943-21.888-7.274-53.491-2.765-78.882 11.256l-6.575 3.63-4.137-3.541c-5.643-4.83-21.567-12.207-30.426-14.096-14.333-3.055-43.895.17-51.287 5.595-.55.404-3.025 1.519-5.5 2.478-2.475.959-7.778 3.73-11.785 6.158-11.689 7.083-13.547 5.975-10.738-6.403 16.437-72.428 28.939-107.444 44.215-123.843 6.13-6.579 7.516-7.225 18.081-8.425 4.8-.546 14.062-2.097 20.583-3.448 6.521-1.351 18.994-3.139 27.717-3.973 17.029-1.629 19.643-2.277 24.674-6.113 8.852-6.753 7.504-17.556-2.461-19.721-1.532-.332-3.428-1.03-4.212-1.55-1.669-1.105-1.994-.577 8.151-13.223 7.484-9.329 8.784-12.697 6.339-16.429-5.657-8.633-38.538-20.542-56.995-20.642-14.033-.077-19.848 3.465-31.83 19.386-10.868 14.44-11.96 15.827-20.728 26.329-13.666 16.369-31.28 35.64-51.114 55.923-26.935 27.545-37.903 41.752-53.302 69.047-3.103 5.5-6.328 11.125-7.167 12.5-2.932 4.805-21.256 42.584-25.368 52.301-12.399 29.304-5.699 45.752 29.44 72.272 4.685 3.536 26.98 13.488 38.866 17.35 21.153 6.872 51.104 12.371 76.549 14.054 8.478.561 15.488 1.133 15.576 1.271l6.844 10.551c5.859 9.028 6.541 10.564 5.531 12.451-.634 1.184-5.895 9.15-11.691 17.701C722.48 727.958 705 754.102 705 754.543c0 .252 52.866.457 117.481.457h117.481l-.489 4.25c-1.348 11.731-2.413 41.778-1.559 44.023 2.331 6.131 11.206 8.786 16.201 4.846 2.696-2.126 16.316-23.414 32.866-51.369.978-1.652 8.15-1.75 128.134-1.75 108.817 0 127.021-.202 126.559-1.407-.297-.773-3.418-5.611-6.935-10.75-8.112-11.85-43.169-63.957-44.071-65.505-.372-.638 2.492-5.926 6.366-11.75 6.411-9.639 7.318-10.588 10.126-10.588 5.304 0 23.77-2.984 37.84-6.114 64.503-14.352 102.249-45.862 96.772-80.784-1.814-11.569-20.926-52.559-38.747-83.102-15.455-26.487-27.272-41.817-50.491-65.5-29.731-30.326-53.392-57.11-72.438-82-13.598-17.77-18.988-21.071-34.096-20.88-20.027.253-52.517 12.712-56.878 21.811-1.789 3.734-.704 5.845 9.548 18.582l7.557 9.389-5.28 1.795c-11.172 3.797-12.313 11.295-2.97 19.507 4.17 3.665 10.829 5.357 24.55 6.237 7.166.46 20.216 2.217 29 3.905 8.785 1.688 19.289 3.588 23.342 4.222 6.168.965 8.003 1.725 11.252 4.66 15.772 14.249 33.066 60.069 46.611 123.494 3.631 16.997 2.883 17.7-10.337 9.715-33.602-20.297-66.812-21.449-93.973-3.259a813.782 813.782 0 0 1-7.881 5.224c-1.981 1.278-2.925.999-10.608-3.135-23.531-12.661-51.79-17.046-71.571-11.106-13.019 3.909-15.341 4.009-20.311.871-5.085-3.21-6.544-6.399-8.661-18.934l-1.592-9.421 4.351-3.82c15.164-13.315 24.922-27.942 30.424-45.604 1.422-4.564 2.77-6.572 6.551-9.761 7.996-6.742 11.182-14.617 11.691-28.895.698-19.558-2.585-28.632-12.152-33.597-5.447-2.827-5.746-3.173-5.196-6 9.337-47.984.421-78.415-22.803-77.827-5.967.151-7.481-.207-11.906-2.816-29.081-17.146-68.313-25.517-98.258-20.965m20.403 307.131c-10.466 1.621-20.782 8.038-26.191 16.294L902.954 597H1022.113l-1.806-3.128c-2.806-4.859-9.699-10.086-17.6-13.346l-7.207-2.973-29.5-.198c-16.225-.109-32.019.192-35.097.668M805.942 611.25c-.684 2.95-6.953 32.46-9.506 44.75-1.885 9.075-4.566 21.675-5.957 28C785.018 708.825 779 737.17 779 738.061c0 .518 4.187.939 9.34.939h9.34l1.243-7.25c.683-3.987 2.132-11.3 3.219-16.25 1.086-4.95 2.859-13.05 3.938-18 1.08-4.95 2.183-9.995 2.451-11.211.451-2.046 1.137-2.233 9.188-2.5l8.701-.289 1.744-8.5c.96-4.675 1.765-9.062 1.79-9.75.033-.906-2.31-1.25-8.521-1.25-7.891 0-8.521-.147-7.979-1.856.324-1.021 1.885-8.192 3.469-15.936 1.584-7.744 3.176-14.558 3.537-15.144.408-.66 5.372-1.064 13.06-1.064h12.403l.993-3.75c1.558-5.879 3.033-12.63 3.06-14 .021-1.074-43.786-2.069-44.034-1m52.563 1c-.658 1.903-3.505 14.746-3.505 15.812 0 .516 3.756.938 8.346.938h8.346l1.654-7.528c2.448-11.141 2.855-10.472-6.377-10.472-5.528 0-8.167.39-8.464 1.25m69.054 0c-.44 1.454-3.141 43.941-5.516 86.75-.534 9.625-1.261 22.563-1.616 28.75l-.646 11.25h18.802l4.145-11.75c2.28-6.462 6.687-18.725 9.794-27.25 11.412-31.315 13.452-36.938 21.412-59 4.464-12.375 8.555-23.534 9.091-24.797 2.116-4.986 1.633-5.303-7.604-4.992l-8.58.289-1.989 5.5c-1.095 3.025-3.511 10-5.37 15.5s-6.37 18.55-10.024 29c-3.654 10.45-7.128 20.462-7.719 22.25-1.547 4.678-3.074 4.037-2.382-1 .803-5.849 3.765-41.303 5.22-62.5l.635-9.25h-8.637c-6.042 0-8.751.376-9.016 1.25m66.017 0c-.199.688-.892 3.95-1.54 7.25s-1.402 6.788-1.675 7.75c-.444 1.569.389 1.75 8.053 1.75 8.507 0 8.551-.013 9.171-2.75.343-1.513 1.252-5.29 2.019-8.394.768-3.105 1.396-5.917 1.396-6.25 0-1.269-17.054-.638-17.424.644m31.447 1.189c-.51 1.341-2.051 8.204-3.425 15.25-1.374 7.046-3.447 16.861-4.606 21.811-1.159 4.95-3.228 14.625-4.597 21.5a1419.99 1419.99 0 0 1-5.383 25.5c-1.59 7.15-4.091 19.075-5.557 26.5-1.465 7.425-2.869 13.837-3.119 14.25-.25.413 3.623.75 8.605.75 8.996 0 9.059-.017 9.059-2.5 0-3.178.702-3.101 4.962.541 2.823 2.413 4.375 2.959 8.406 2.959 11.506 0 16.06-8.428 22.186-41.058.872-4.643 3.129-15.265 5.015-23.604 4.833-21.358 4.383-28.216-2.041-31.143-4.007-1.826-6.717-1.462-13.101 1.758-3.22 1.624-6.047 2.76-6.282 2.525-.48-.479.969-7.971 4.49-23.22 3.495-15.134 3.842-14.258-5.66-14.258-7.586 0-8.075.133-8.952 2.439M888.997 632.25 886.5 643.5l-4.464.5-4.464.5-1.242 6c-1.943 9.384-1.911 9.5 2.67 9.5 4.37 0 4.595.452 2.991 6.007-.554 1.921-2.56 11.143-4.457 20.493-1.897 9.35-4.135 20.15-4.974 24-2.027 9.305-1.991 18.79.089 23.174 2.597 5.471 4.922 6.453 14.49 6.118l8.361-.292 1.101-4.5c.606-2.475 1.409-6.161 1.785-8.191l.682-3.691-4.265-.309c-6.818-.494-7.019-2.468-2.465-24.174a5109.768 5109.768 0 0 0 5.868-28.341l2.063-10.206 6.055-.294 6.056-.294 1.787-7c.983-3.85 1.798-7.337 1.81-7.75.013-.413-2.677-.75-5.977-.75-3.3 0-6-.197-6-.438s.704-3.474 1.565-7.185c.861-3.711 1.927-8.689 2.371-11.062l.806-4.315h-17.248l-2.497 11.25m200.791 11.884c-9.376 2.643-17.758 15.054-21.184 31.366-.924 4.4-3.499 16.55-5.722 27-4.714 22.159-4.491 26.682 1.64 33.373l3.324 3.627h9.855c9.524 0 10.001-.108 14.229-3.217 7.89-5.803 12.438-14.05 14.633-26.533l.66-3.75H1091.26l-1.218 6.25c-1.996 10.233-7.884 15.908-12.116 11.676-2.458-2.458-2.385-5.873.396-18.426l2.215-10 14.584-.276 14.584-.276 2.86-12.724c4.756-21.165 3.789-31.988-3.245-36.335-4.024-2.487-13.814-3.367-19.532-1.755m72.154-.186c-3.975 1.206-7.19 3.061-10.241 5.908l-2.8 2.613.678-4.235.677-4.234H1133.077l-.962 3.75c-.529 2.063-1.474 6.45-2.1 9.75-1.216 6.412-7.817 37.691-13.531 64.116-1.916 8.864-3.484 16.419-3.484 16.789 0 .37 3.92.543 8.712.384l8.711-.289 1.826-9.5c1.005-5.225 3.368-16.475 5.252-25 1.885-8.525 4.196-19.523 5.137-24.44 2.469-12.902 9.621-19.958 18.439-18.195 2.416.484 2.984.21 3.41-1.642 2.645-11.495 3.486-15.332 3.498-15.973.018-.923-2.635-.836-6.043.198M848.123 659.25a71260.292 71260.292 0 0 0-14.583 69L831.271 739h17.502l.484-2.75c.863-4.902 6.852-33.564 8.41-40.25C860.036 685.837 868 646.765 868 645.308c0-.973-2.134-1.308-8.321-1.308h-8.32l-3.236 15.25m138.416-14c-.219.688-1.573 6.875-3.009 13.75l-6.997 33.5c-2.413 11.55-5.545 26.28-6.96 32.733-1.415 6.453-2.573 12.191-2.573 12.75 0 .609 3.38 1.017 8.42 1.017h8.42l1.605-7.057c.883-3.882 2.755-12.769 4.161-19.75 1.407-6.981 3.384-16.293 4.396-20.693 1.011-4.4 3.45-15.875 5.42-25.5 1.97-9.625 3.859-18.513 4.197-19.75.603-2.207.45-2.25-8.034-2.25-6.039 0-8.768.377-9.046 1.25m103.99 15.13c-2.478 2.478-5.168 10.027-6.209 17.421l-.606 4.302 6.36-.302 6.36-.301 1.742-7.5c2.184-9.405 2.238-12.444.253-14.429-2.242-2.241-5.147-1.944-7.9.809m-56.162.076c-2.504 1.753-4.084 7.223-8.824 30.544-1.956 9.625-3.993 19.3-4.526 21.5-2.384 9.837.547 15.103 5.964 10.716 2.238-1.812 10.13-33.852 13.158-53.415 1.545-9.983-.39-13.115-5.772-9.345" fill-rule="evenodd"/></svg>